<svg width="80" height="60" viewBox="0 0 80 60" fill="none" xmlns="http://www.w3.org/2000/svg">
<path d="M51.0714 12.3007C41.8714 2.70066 31.9047 8.30066 28.0714 12.3007C16.4714 13.1008 14.5714 20.634 15.0714 24.3005C15.4714 31.9005 25.238 33.1339 30.0714 32.8005C31.738 33.9672 35.9714 36.3005 39.5714 36.3005C43.1714 36.3005 47.738 33.9672 49.5714 32.8005C62.0714 35.3005 63.0714 23.8005 63.0714 22.3005C63.8714 15.1005 55.4047 12.6339 51.0714 12.3007Z" fill="#3B4043" stroke="#3B4043"/>
<path d="M27.2086 38C25.5419 39.8333 23.2086 44.2 27.2086 47C29.0419 46.5 31.6086 44 27.2086 38Z" fill="#3B4043" stroke="#3B4043"/>
<path d="M39.2086 47C37.5419 48.8333 35.2086 53.2 39.2086 56C41.0419 55.5 43.6086 53 39.2086 47Z" fill="#3B4043" stroke="#3B4043"/>
<path d="M51.2086 43C49.5419 44.8333 47.2086 49.2 51.2086 52C53.0419 51.5 55.6086 49 51.2086 43Z" fill="#3B4043" stroke="#3B4043"/>
</svg>
